<?xml version="1.0" encoding="UTF-8" standalone="no"?>
<!DOCTYPE svg PUBLIC "-//W3C//DTD SVG 1.1//EN"
 "http://www.w3.org/Graphics/SVG/1.1/DTD/svg11.dtd">
<!-- Generated by graphviz version 2.43.0 (0)
 -->
<!-- Title: ContextAssembly Pages: 1 -->
<svg width="2386pt" height="1506pt"
 viewBox="0.00 0.00 2386.48 1506.08" xmlns="http://www.w3.org/2000/svg" xmlns:xlink="http://www.w3.org/1999/xlink">
<g id="graph0" class="graph" transform="scale(1 1) rotate(0) translate(4 1502.08)">
<title>ContextAssembly</title>
<polygon fill="white" stroke="transparent" points="-4,4 -4,-1502.08 2382.48,-1502.08 2382.48,4 -4,4"/>
<text text-anchor="middle" x="1189.24" y="-1484.48" font-family="Times,serif" font-size="12.00">Context Assembly (context.rs) — end&#45;to&#45;end flow</text>
<g id="clust2" class="cluster">
<title>cluster_phase1</title>
<path fill="none" stroke="lightgrey" d="M628,-1275.08C628,-1275.08 819,-1275.08 819,-1275.08 825,-1275.08 831,-1281.08 831,-1287.08 831,-1287.08 831,-1392.08 831,-1392.08 831,-1398.08 825,-1404.08 819,-1404.08 819,-1404.08 628,-1404.08 628,-1404.08 622,-1404.08 616,-1398.08 616,-1392.08 616,-1392.08 616,-1287.08 616,-1287.08 616,-1281.08 622,-1275.08 628,-1275.08"/>
<text text-anchor="middle" x="723.5" y="-1390.48" font-family="Times,serif" font-size="12.00">Phase 1 — prepare_context</text>
</g>
<!-- cli -->
<g id="node1" class="node">
<title>cli</title>
<polygon fill="none" stroke="black" points="175,-1423.08 172,-1427.08 151,-1427.08 148,-1423.08 0,-1423.08 0,-1385.08 175,-1385.08 175,-1423.08"/>
<text text-anchor="middle" x="87.5" y="-1407.88" font-family="Helvetica,sans-Serif" font-size="14.00">CLI Args (ContextArgs)</text>
<text text-anchor="middle" x="87.5" y="-1392.88" font-family="Helvetica,sans-Serif" font-size="14.00">+ AppContext</text>
</g>
<!-- p1 -->
<g id="node6" class="node">
<title>p1</title>
<polygon fill="none" stroke="black" points="401,-1450.08 273,-1450.08 273,-1414.08 401,-1414.08 401,-1450.08"/>
<text text-anchor="middle" x="337" y="-1428.38" font-family="Helvetica,sans-Serif" font-size="14.00">prepare_context</text>
</g>
<!-- cli&#45;&gt;p1 -->
<g id="edge1" class="edge">
<title>cli&#45;&gt;p1</title>
<path fill="none" stroke="black" d="M175.06,-1413.88C203.74,-1417.12 235.36,-1420.7 262.92,-1423.82"/>
<polygon fill="black" stroke="black" points="262.55,-1427.3 272.88,-1424.94 263.34,-1420.34 262.55,-1427.3"/>
</g>
<!-- cfg -->
<g id="node2" class="node">
<title>cfg</title>
<polygon fill="none" stroke="black" points="165,-1477.08 162,-1481.08 141,-1481.08 138,-1477.08 10,-1477.08 10,-1441.08 165,-1441.08 165,-1477.08"/>
<text text-anchor="middle" x="87.5" y="-1455.38" font-family="Helvetica,sans-Serif" font-size="14.00">Config (config.toml)</text>
</g>
<!-- cfg&#45;&gt;p1 -->
<g id="edge2" class="edge">
<title>cfg&#45;&gt;p1</title>
<path fill="none" stroke="black" d="M165.12,-1450.73C196.11,-1447.34 231.74,-1443.46 262.42,-1440.11"/>
<polygon fill="black" stroke="black" points="263.06,-1443.56 272.62,-1439 262.3,-1436.6 263.06,-1443.56"/>
</g>
<!-- anchor -->
<g id="node3" class="node">
<title>anchor</title>
<polygon fill="none" stroke="black" points="147,-1111.08 22,-1111.08 22,-1073.08 153,-1073.08 153,-1105.08 147,-1111.08"/>
<polyline fill="none" stroke="black" points="147,-1111.08 147,-1105.08 "/>
<polyline fill="none" stroke="black" points="153,-1105.08 147,-1105.08 "/>
<text text-anchor="middle" x="87.5" y="-1095.88" font-family="Helvetica,sans-Serif" font-size="14.00">Anchor (file:line)</text>
<text text-anchor="middle" x="87.5" y="-1080.88" font-family="Helvetica,sans-Serif" font-size="14.00">(optional)</text>
</g>
<!-- aug -->
<g id="node11" class="node">
<title>aug</title>
<polygon fill="none" stroke="black" points="1201,-1173.58 1041,-1173.58 1041,-1120.58 1201,-1120.58 1201,-1173.58"/>
<text text-anchor="middle" x="1121" y="-1158.38" font-family="Helvetica,sans-Serif" font-size="14.00">Augment queries:</text>
<text text-anchor="middle" x="1121" y="-1143.38" font-family="Helvetica,sans-Serif" font-size="14.00">• trait&#45;resolve</text>
<text text-anchor="middle" x="1121" y="-1128.38" font-family="Helvetica,sans-Serif" font-size="14.00">• bounded callgraph</text>
</g>
<!-- anchor&#45;&gt;aug -->
<g id="edge11" class="edge">
<title>anchor&#45;&gt;aug</title>
<path fill="none" stroke="black" d="M153.02,-1095.52C330.64,-1104.99 827.05,-1131.46 1030.9,-1142.33"/>
<polygon fill="black" stroke="black" points="1030.8,-1145.83 1040.97,-1142.87 1031.17,-1138.84 1030.8,-1145.83"/>
</g>
<!-- queries -->
<g id="node4" class="node">
<title>queries</title>
<polygon fill="none" stroke="black" points="117,-1165.08 52,-1165.08 52,-1129.08 123,-1129.08 123,-1159.08 117,-1165.08"/>
<polyline fill="none" stroke="black" points="117,-1165.08 117,-1159.08 "/>
<polyline fill="none" stroke="black" points="123,-1159.08 117,-1159.08 "/>
<text text-anchor="middle" x="87.5" y="-1143.38" font-family="Helvetica,sans-Serif" font-size="14.00">Queries</text>
</g>
<!-- queries&#45;&gt;aug -->
<g id="edge10" class="edge">
<title>queries&#45;&gt;aug</title>
<path fill="none" stroke="black" d="M123.11,-1147.08C266.14,-1147.08 813.69,-1147.08 1030.67,-1147.08"/>
<polygon fill="black" stroke="black" points="1030.75,-1150.58 1040.75,-1147.08 1030.75,-1143.58 1030.75,-1150.58"/>
</g>
<!-- fsig -->
<g id="node5" class="node">
<title>fsig</title>
<polygon fill="none" stroke="black" points="138,-1221.08 31,-1221.08 31,-1183.08 144,-1183.08 144,-1215.08 138,-1221.08"/>
<polyline fill="none" stroke="black" points="138,-1221.08 138,-1215.08 "/>
<polyline fill="none" stroke="black" points="144,-1215.08 138,-1215.08 "/>
<text text-anchor="middle" x="87.5" y="-1205.88" font-family="Helvetica,sans-Serif" font-size="14.00">Fail Signal File</text>
<text text-anchor="middle" x="87.5" y="-1190.88" font-family="Helvetica,sans-Serif" font-size="14.00">(optional)</text>
</g>
<!-- p2 -->
<g id="node10" class="node">
<title>p2</title>
<polygon fill="none" stroke="black" points="1183.5,-1245.08 1058.5,-1245.08 1058.5,-1209.08 1183.5,-1209.08 1183.5,-1245.08"/>
<text text-anchor="middle" x="1121" y="-1223.38" font-family="Helvetica,sans-Serif" font-size="14.00">collect_symbols</text>
</g>
<!-- fsig&#45;&gt;p2 -->
<g id="edge16" class="edge">
<title>fsig&#45;&gt;p2</title>
<path fill="none" stroke="black" stroke-dasharray="5,2" d="M144.32,-1203.44C318.73,-1207.66 853.37,-1220.62 1048.1,-1225.34"/>
<polygon fill="black" stroke="black" points="1048.14,-1228.84 1058.22,-1225.59 1048.31,-1221.85 1048.14,-1228.84"/>
<text text-anchor="middle" x="543" y="-1218.88" font-family="Times,serif" font-size="14.00">parse fail signals</text>
</g>
<!-- idxchk -->
<g id="node7" class="node">
<title>idxchk</title>
<polygon fill="none" stroke="black" points="337,-1378.08 212,-1340.08 337,-1302.08 462,-1340.08 337,-1378.08"/>
<text text-anchor="middle" x="337" y="-1343.88" font-family="Helvetica,sans-Serif" font-size="14.00">symbols index?</text>
<text text-anchor="middle" x="337" y="-1328.88" font-family="Helvetica,sans-Serif" font-size="14.00">&amp; fresh?</text>
</g>
<!-- p1&#45;&gt;idxchk -->
<g id="edge3" class="edge">
<title>p1&#45;&gt;idxchk</title>
<path fill="none" stroke="black" d="M337,-1413.97C337,-1405.4 337,-1396.82 337,-1388.25"/>
<polygon fill="black" stroke="black" points="340.5,-1388.18 337,-1378.18 333.5,-1388.18 340.5,-1388.18"/>
</g>
<!-- env -->
<g id="node9" class="node">
<title>env</title>
<polygon fill="none" stroke="black" points="803,-1375.08 800,-1379.08 779,-1379.08 776,-1375.08 644,-1375.08 644,-1339.08 803,-1339.08 803,-1375.08"/>
<text text-anchor="middle" x="723.5" y="-1353.38" font-family="Helvetica,sans-Serif" font-size="14.00">ContextEnvironment</text>
</g>
<!-- p1&#45;&gt;env -->
<g id="edge7" class="edge">
<title>p1&#45;&gt;env</title>
<path fill="none" stroke="black" d="M401.06,-1419.78C464.45,-1407.42 562.7,-1388.25 633.9,-1374.37"/>
<polygon fill="black" stroke="black" points="634.61,-1377.79 643.76,-1372.44 633.27,-1370.92 634.61,-1377.79"/>
<text text-anchor="middle" x="543" y="-1421.88" font-family="Times,serif" font-size="14.00">tier/budget/limits</text>
<text text-anchor="middle" x="543" y="-1406.88" font-family="Times,serif" font-size="14.00">history, model</text>
</g>
<!-- lock -->
<g id="node8" class="node">
<title>lock</title>
<polygon fill="none" stroke="black" points="823,-1321.08 624,-1321.08 624,-1283.08 823,-1283.08 823,-1321.08"/>
<text text-anchor="middle" x="723.5" y="-1305.88" font-family="Helvetica,sans-Serif" font-size="14.00">ensure_symbols_with_lock</text>
<text text-anchor="middle" x="723.5" y="-1290.88" font-family="Helvetica,sans-Serif" font-size="14.00">(generate/refresh)</text>
</g>
<!-- idxchk&#45;&gt;lock -->
<g id="edge5" class="edge">
<title>idxchk&#45;&gt;lock</title>
<path fill="none" stroke="red" d="M432.06,-1330.79C486.9,-1325.37 556.32,-1318.51 613.54,-1312.85"/>
<polygon fill="red" stroke="red" points="614.1,-1316.31 623.71,-1311.85 613.41,-1309.35 614.1,-1316.31"/>
<text text-anchor="middle" x="543" y="-1328.88" font-family="Times,serif" font-size="14.00">missing/stale</text>
</g>
<!-- symidx -->
<g id="node30" class="node">
<title>symidx</title>
<polygon fill="none" stroke="black" points="445.5,-1266.08 228.5,-1266.08 228.5,-1262.08 224.5,-1262.08 224.5,-1258.08 228.5,-1258.08 228.5,-1238.08 224.5,-1238.08 224.5,-1234.08 228.5,-1234.08 228.5,-1230.08 445.5,-1230.08 445.5,-1266.08"/>
<polyline fill="none" stroke="black" points="228.5,-1262.08 232.5,-1262.08 232.5,-1258.08 228.5,-1258.08 "/>
<polyline fill="none" stroke="black" points="228.5,-1238.08 232.5,-1238.08 232.5,-1234.08 228.5,-1234.08 "/>
<text text-anchor="middle" x="337" y="-1244.38" font-family="Helvetica,sans-Serif" font-size="14.00">SymbolIndex (symbols.jsonl)</text>
</g>
<!-- idxchk&#45;&gt;symidx -->
<g id="edge4" class="edge">
<title>idxchk&#45;&gt;symidx</title>
<path fill="none" stroke="green" d="M337,-1301.78C337,-1293.32 337,-1284.51 337,-1276.52"/>
<polygon fill="green" stroke="green" points="340.5,-1276.26 337,-1266.26 333.5,-1276.26 340.5,-1276.26"/>
<text text-anchor="middle" x="326.5" y="-1280.38" font-family="Times,serif" font-size="14.00">fresh</text>
</g>
<!-- lock&#45;&gt;symidx -->
<g id="edge6" class="edge">
<title>lock&#45;&gt;symidx</title>
<path fill="none" stroke="black" d="M623.8,-1288.22C572.48,-1281.01 509.39,-1272.15 455.56,-1264.59"/>
<polygon fill="black" stroke="black" points="456.01,-1261.12 445.62,-1263.2 455.03,-1268.05 456.01,-1261.12"/>
</g>
<!-- env&#45;&gt;p2 -->
<g id="edge9" class="edge">
<title>env&#45;&gt;p2</title>
<path fill="none" stroke="black" d="M799.52,-1339.01C810.13,-1336.18 820.87,-1333.17 831,-1330.08 912.89,-1305.17 1005.85,-1270.95 1063.72,-1248.92"/>
<polygon fill="black" stroke="black" points="1065.3,-1252.06 1073.4,-1245.22 1062.81,-1245.52 1065.3,-1252.06"/>
</g>
<!-- p2&#45;&gt;aug -->
<g id="edge12" class="edge">
<title>p2&#45;&gt;aug</title>
<path fill="none" stroke="black" d="M1121,-1208.71C1121,-1200.4 1121,-1192.09 1121,-1183.78"/>
<polygon fill="black" stroke="black" points="1124.5,-1183.65 1121,-1173.65 1117.5,-1183.65 1124.5,-1183.65"/>
</g>
<!-- col -->
<g id="node14" class="node">
<title>col</title>
<polygon fill="none" stroke="black" points="1161,-941.08 1158,-945.08 1137,-945.08 1134,-941.08 1081,-941.08 1081,-905.08 1161,-905.08 1161,-941.08"/>
<text text-anchor="middle" x="1121" y="-919.38" font-family="Helvetica,sans-Serif" font-size="14.00">Collected</text>
</g>
<!-- p2&#45;&gt;col -->
<g id="edge17" class="edge">
<title>p2&#45;&gt;col</title>
<path fill="none" stroke="black" d="M1067.34,-1209.04C976.71,-1175.63 809.08,-1099.39 872,-1010.58 916.98,-947.1 1011.84,-929.34 1070.62,-924.57"/>
<polygon fill="black" stroke="black" points="1071.07,-928.05 1080.8,-923.85 1070.58,-921.07 1071.07,-928.05"/>
<text text-anchor="middle" x="930" y="-1014.38" font-family="Times,serif" font-size="14.00">fail_signals, anchor hints</text>
</g>
<!-- dedup -->
<g id="node13" class="node">
<title>dedup</title>
<polygon fill="none" stroke="black" points="1199,-1085.08 1043,-1085.08 1043,-1049.08 1199,-1049.08 1199,-1085.08"/>
<text text-anchor="middle" x="1121" y="-1063.38" font-family="Helvetica,sans-Serif" font-size="14.00">Deduplicate (stable)</text>
</g>
<!-- aug&#45;&gt;dedup -->
<g id="edge13" class="edge">
<title>aug&#45;&gt;dedup</title>
<path fill="none" stroke="black" d="M1121,-1120.5C1121,-1112.13 1121,-1103.77 1121,-1095.41"/>
<polygon fill="black" stroke="black" points="1124.5,-1095.21 1121,-1085.21 1117.5,-1095.21 1124.5,-1095.21"/>
</g>
<!-- lookup -->
<g id="node12" class="node">
<title>lookup</title>
<polygon fill="none" stroke="black" points="1205,-1013.08 1037,-1013.08 1037,-977.08 1205,-977.08 1205,-1013.08"/>
<text text-anchor="middle" x="1121" y="-991.38" font-family="Helvetica,sans-Serif" font-size="14.00">SymbolIndex.lookup()</text>
</g>
<!-- lookup&#45;&gt;col -->
<g id="edge15" class="edge">
<title>lookup&#45;&gt;col</title>
<path fill="none" stroke="black" d="M1121,-976.67C1121,-969.02 1121,-959.98 1121,-951.51"/>
<polygon fill="black" stroke="black" points="1124.5,-951.25 1121,-941.25 1117.5,-951.25 1124.5,-951.25"/>
<text text-anchor="middle" x="1110.5" y="-955.38" font-family="Times,serif" font-size="14.00">RankedSymbol[]</text>
</g>
<!-- dedup&#45;&gt;lookup -->
<g id="edge14" class="edge">
<title>dedup&#45;&gt;lookup</title>
<path fill="none" stroke="black" d="M1121,-1049.04C1121,-1040.49 1121,-1031.94 1121,-1023.4"/>
<polygon fill="black" stroke="black" points="1124.5,-1023.37 1121,-1013.37 1117.5,-1023.37 1124.5,-1023.37"/>
</g>
<!-- p3 -->
<g id="node15" class="node">
<title>p3</title>
<polygon fill="none" stroke="black" points="1754.59,-964.08 1620.59,-964.08 1620.59,-928.08 1754.59,-928.08 1754.59,-964.08"/>
<text text-anchor="middle" x="1687.59" y="-942.38" font-family="Helvetica,sans-Serif" font-size="14.00">assemble_pieces</text>
</g>
<!-- col&#45;&gt;p3 -->
<g id="edge18" class="edge">
<title>col&#45;&gt;p3</title>
<path fill="none" stroke="black" d="M1161.33,-925.13C1180.01,-926.07 1202.65,-927.19 1223,-928.08 1359.5,-934.11 1518.66,-940.06 1610.51,-943.38"/>
<polygon fill="black" stroke="black" points="1610.43,-946.88 1620.55,-943.74 1610.69,-939.88 1610.43,-946.88"/>
</g>
<!-- empty_check -->
<g id="node31" class="node">
<title>empty_check</title>
<polygon fill="none" stroke="black" points="1380.79,-918.08 1242.21,-900.08 1380.79,-882.08 1519.38,-900.08 1380.79,-918.08"/>
<text text-anchor="middle" x="1380.79" y="-896.38" font-family="Helvetica,sans-Serif" font-size="14.00">chosen.is_empty()?</text>
</g>
<!-- col&#45;&gt;empty_check -->
<g id="edge19" class="edge">
<title>col&#45;&gt;empty_check</title>
<path fill="none" stroke="black" d="M1161.15,-919.59C1194.74,-916.59 1244.46,-912.16 1288,-908.27"/>
<polygon fill="black" stroke="black" points="1288.4,-911.75 1298.05,-907.38 1287.78,-904.78 1288.4,-911.75"/>
</g>
<!-- sym2piece -->
<g id="node16" class="node">
<title>sym2piece</title>
<polygon fill="none" stroke="black" points="1757.59,-892.08 1617.59,-892.08 1617.59,-856.08 1757.59,-856.08 1757.59,-892.08"/>
<text text-anchor="middle" x="1687.59" y="-870.38" font-family="Helvetica,sans-Serif" font-size="14.00">Symbols → Pieces</text>
</g>
<!-- p3&#45;&gt;sym2piece -->
<g id="edge22" class="edge">
<title>p3&#45;&gt;sym2piece</title>
<path fill="none" stroke="black" d="M1687.59,-928.04C1687.59,-919.49 1687.59,-910.94 1687.59,-902.4"/>
<polygon fill="black" stroke="black" points="1691.09,-902.37 1687.59,-892.37 1684.09,-902.37 1691.09,-902.37"/>
</g>
<!-- merge -->
<g id="node17" class="node">
<title>merge</title>
<polygon fill="none" stroke="black" points="1749.09,-820.08 1626.09,-820.08 1626.09,-784.08 1749.09,-784.08 1749.09,-820.08"/>
<text text-anchor="middle" x="1687.59" y="-798.38" font-family="Helvetica,sans-Serif" font-size="14.00">Merge overlaps</text>
</g>
<!-- sym2piece&#45;&gt;merge -->
<g id="edge23" class="edge">
<title>sym2piece&#45;&gt;merge</title>
<path fill="none" stroke="black" d="M1687.59,-856.04C1687.59,-847.49 1687.59,-838.94 1687.59,-830.4"/>
<polygon fill="black" stroke="black" points="1691.09,-830.37 1687.59,-820.37 1684.09,-830.37 1691.09,-830.37"/>
</g>
<!-- rank -->
<g id="node18" class="node">
<title>rank</title>
<polygon fill="none" stroke="black" points="1801.59,-748.08 1573.59,-748.08 1573.59,-710.08 1801.59,-710.08 1801.59,-748.08"/>
<text text-anchor="middle" x="1687.59" y="-732.88" font-family="Helvetica,sans-Serif" font-size="14.00">Rank:</text>
<text text-anchor="middle" x="1687.59" y="-717.88" font-family="Helvetica,sans-Serif" font-size="14.00">anchor → same dir → path,line</text>
</g>
<!-- merge&#45;&gt;rank -->
<g id="edge24" class="edge">
<title>merge&#45;&gt;rank</title>
<path fill="none" stroke="black" d="M1687.59,-783.98C1687.59,-775.4 1687.59,-766.83 1687.59,-758.26"/>
<polygon fill="black" stroke="black" points="1691.09,-758.19 1687.59,-748.19 1684.09,-758.19 1691.09,-758.19"/>
</g>
<!-- calldist -->
<g id="node19" class="node">
<title>calldist</title>
<ellipse fill="none" stroke="black" cx="1687.59" cy="-602.08" rx="96.68" ry="18"/>
<text text-anchor="middle" x="1687.59" y="-598.38" font-family="Helvetica,sans-Serif" font-size="14.00">Call&#45;distance boost</text>
</g>
<!-- rank&#45;&gt;calldist -->
<g id="edge25" class="edge">
<title>rank&#45;&gt;calldist</title>
<path fill="none" stroke="black" d="M1592.84,-710.04C1574.63,-701.97 1557.78,-690.46 1546.59,-674.08 1537.56,-660.87 1537.23,-651.06 1546.59,-638.08 1556.07,-624.93 1569.66,-616.11 1584.7,-610.27"/>
<polygon fill="black" stroke="black" points="1585.9,-613.56 1594.23,-607.02 1583.63,-606.94 1585.9,-613.56"/>
</g>
<!-- fsboost -->
<g id="node20" class="node">
<title>fsboost</title>
<ellipse fill="none" stroke="black" cx="1687.59" cy="-656.08" rx="83.39" ry="18"/>
<text text-anchor="middle" x="1687.59" y="-652.38" font-family="Helvetica,sans-Serif" font-size="14.00">Fail&#45;signal boost</text>
</g>
<!-- rank&#45;&gt;fsboost -->
<g id="edge27" class="edge">
<title>rank&#45;&gt;fsboost</title>
<path fill="none" stroke="black" d="M1687.59,-709.84C1687.59,-701.42 1687.59,-693.01 1687.59,-684.6"/>
<polygon fill="black" stroke="black" points="1691.09,-684.33 1687.59,-674.33 1684.09,-684.33 1691.09,-684.33"/>
</g>
<!-- budget -->
<g id="node21" class="node">
<title>budget</title>
<polygon fill="none" stroke="black" points="1769.59,-548.08 1605.59,-548.08 1605.59,-510.08 1769.59,-510.08 1769.59,-548.08"/>
<text text-anchor="middle" x="1687.59" y="-532.88" font-family="Helvetica,sans-Serif" font-size="14.00">Budgeter.fit</text>
<text text-anchor="middle" x="1687.59" y="-517.88" font-family="Helvetica,sans-Serif" font-size="14.00">(+ buckets / dedupe)</text>
</g>
<!-- calldist&#45;&gt;budget -->
<g id="edge26" class="edge">
<title>calldist&#45;&gt;budget</title>
<path fill="none" stroke="black" d="M1687.59,-583.98C1687.59,-575.4 1687.59,-566.83 1687.59,-558.26"/>
<polygon fill="black" stroke="black" points="1691.09,-558.19 1687.59,-548.19 1684.09,-558.19 1691.09,-558.19"/>
</g>
<!-- fsboost&#45;&gt;budget -->
<g id="edge28" class="edge">
<title>fsboost&#45;&gt;budget</title>
<path fill="none" stroke="black" d="M1604.86,-653.91C1582.21,-648.89 1560.18,-638.94 1546.59,-620.08 1537.23,-607.1 1537.56,-597.29 1546.59,-584.08 1558.37,-566.84 1576.43,-555 1595.73,-546.87"/>
<polygon fill="black" stroke="black" points="1597.23,-550.05 1605.29,-543.17 1594.7,-543.52 1597.23,-550.05"/>
</g>
<!-- render -->
<g id="node22" class="node">
<title>render</title>
<polygon fill="none" stroke="black" points="1744.09,-474.08 1631.09,-474.08 1631.09,-436.08 1744.09,-436.08 1744.09,-474.08"/>
<text text-anchor="middle" x="1687.59" y="-458.88" font-family="Helvetica,sans-Serif" font-size="14.00">Render</text>
<text text-anchor="middle" x="1687.59" y="-443.88" font-family="Helvetica,sans-Serif" font-size="14.00">(JSON or text)</text>
</g>
<!-- budget&#45;&gt;render -->
<g id="edge29" class="edge">
<title>budget&#45;&gt;render</title>
<path fill="none" stroke="black" d="M1687.59,-509.78C1687.59,-501.24 1687.59,-492.71 1687.59,-484.18"/>
<polygon fill="black" stroke="black" points="1691.09,-484.16 1687.59,-474.16 1684.09,-484.16 1691.09,-484.16"/>
</g>
<!-- asm -->
<g id="node23" class="node">
<title>asm</title>
<polygon fill="none" stroke="black" points="1734.09,-400.08 1731.09,-404.08 1710.09,-404.08 1707.09,-400.08 1641.09,-400.08 1641.09,-364.08 1734.09,-364.08 1734.09,-400.08"/>
<text text-anchor="middle" x="1687.59" y="-378.38" font-family="Helvetica,sans-Serif" font-size="14.00">Assembled</text>
</g>
<!-- render&#45;&gt;asm -->
<g id="edge30" class="edge">
<title>render&#45;&gt;asm</title>
<path fill="none" stroke="black" d="M1687.59,-435.84C1687.59,-427.42 1687.59,-419.01 1687.59,-410.6"/>
<polygon fill="black" stroke="black" points="1691.09,-410.33 1687.59,-400.33 1684.09,-410.33 1691.09,-410.33"/>
</g>
<!-- p4 -->
<g id="node24" class="node">
<title>p4</title>
<polygon fill="none" stroke="black" points="2009.03,-368.08 1893.03,-368.08 1893.03,-332.08 2009.03,-332.08 2009.03,-368.08"/>
<text text-anchor="middle" x="1951.03" y="-346.38" font-family="Helvetica,sans-Serif" font-size="14.00">output_results</text>
</g>
<!-- asm&#45;&gt;p4 -->
<g id="edge31" class="edge">
<title>asm&#45;&gt;p4</title>
<path fill="none" stroke="black" d="M1734.13,-376.51C1775.15,-371.49 1836.01,-364.04 1882.66,-358.33"/>
<polygon fill="black" stroke="black" points="1883.19,-361.79 1892.69,-357.1 1882.34,-354.84 1883.19,-361.79"/>
</g>
<!-- clip -->
<g id="node26" class="node">
<title>clip</title>
<polygon fill="none" stroke="black" points="2063.43,-166.08 1884.63,-166.08 1838.64,-130.08 2017.43,-130.08 2063.43,-166.08"/>
<text text-anchor="middle" x="1951.03" y="-144.38" font-family="Helvetica,sans-Serif" font-size="14.00">clipboard (opt)</text>
</g>
<!-- p4&#45;&gt;clip -->
<g id="edge36" class="edge">
<title>p4&#45;&gt;clip</title>
<path fill="none" stroke="black" stroke-dasharray="5,2" d="M1893.02,-341.83C1865.73,-334.64 1835.8,-321.21 1820.09,-296.08 1806.89,-274.98 1806.89,-205.18 1820.09,-184.08 1828.73,-170.26 1842.26,-161.28 1857.4,-155.53"/>
<polygon fill="black" stroke="black" points="1858.62,-158.82 1867.01,-152.36 1856.42,-152.17 1858.62,-158.82"/>
</g>
<!-- hist -->
<g id="node27" class="node">
<title>hist</title>
<polygon fill="none" stroke="black" points="2057.99,-220.08 1887.84,-220.08 1844.07,-184.08 2014.22,-184.08 2057.99,-220.08"/>
<text text-anchor="middle" x="1951.03" y="-198.38" font-family="Helvetica,sans-Serif" font-size="14.00">history (MRU)</text>
</g>
<!-- p4&#45;&gt;hist -->
<g id="edge37" class="edge">
<title>p4&#45;&gt;hist</title>
<path fill="none" stroke="black" stroke-dasharray="5,2" d="M1893.02,-341.83C1865.73,-334.64 1835.8,-321.21 1820.09,-296.08 1806.41,-274.23 1806.41,-259.94 1820.09,-238.08 1829.28,-223.38 1844.01,-214.15 1860.32,-208.47"/>
<polygon fill="black" stroke="black" points="1861.52,-211.77 1870.08,-205.52 1859.5,-205.06 1861.52,-211.77"/>
</g>
<!-- err_no_matches -->
<g id="node29" class="node">
<title>err_no_matches</title>
<polygon fill="none" stroke="red" points="2027.61,-255 2027.61,-279.17 1982.75,-296.25 1919.31,-296.25 1874.46,-279.17 1874.46,-255 1919.31,-237.92 1982.75,-237.92 2027.61,-255"/>
<text text-anchor="middle" x="1951.03" y="-270.88" font-family="Helvetica,sans-Serif" font-size="14.00">error JSON:</text>
<text text-anchor="middle" x="1951.03" y="-255.88" font-family="Helvetica,sans-Serif" font-size="14.00">no_matches</text>
</g>
<!-- p4&#45;&gt;err_no_matches -->
<g id="edge35" class="edge">
<title>p4&#45;&gt;err_no_matches</title>
<path fill="none" stroke="orange" stroke-dasharray="5,2" d="M1951.03,-331.79C1951.03,-324.37 1951.03,-315.49 1951.03,-306.73"/>
<polygon fill="orange" stroke="orange" points="1954.53,-306.58 1951.03,-296.58 1947.53,-306.58 1954.53,-306.58"/>
<text text-anchor="middle" x="1940.53" y="-310.43" font-family="Times,serif" font-size="14.00">no matches</text>
</g>
<!-- sym_exists -->
<g id="node32" class="node">
<title>sym_exists</title>
<polygon fill="none" stroke="black" points="2251.48,-132.08 2124.48,-94.08 2251.48,-56.08 2378.48,-94.08 2251.48,-132.08"/>
<text text-anchor="middle" x="2251.48" y="-97.88" font-family="Helvetica,sans-Serif" font-size="14.00">symbols exists?</text>
<text text-anchor="middle" x="2251.48" y="-82.88" font-family="Helvetica,sans-Serif" font-size="14.00">(index present)</text>
</g>
<!-- p4&#45;&gt;sym_exists -->
<g id="edge32" class="edge">
<title>p4&#45;&gt;sym_exists</title>
<path fill="none" stroke="black" d="M2009.04,-332.86C2027.35,-325.85 2047.11,-316.64 2063.48,-305.08 2131.05,-257.38 2190.9,-180.72 2223.77,-134.11"/>
<polygon fill="black" stroke="black" points="2226.74,-135.98 2229.59,-125.77 2221,-131.97 2226.74,-135.98"/>
</g>
<!-- print -->
<g id="node25" class="node">
<title>print</title>
<polygon fill="none" stroke="black" points="2009.29,-112.08 1916.61,-112.08 1892.77,-76.08 1985.45,-76.08 2009.29,-112.08"/>
<text text-anchor="middle" x="1951.03" y="-90.38" font-family="Helvetica,sans-Serif" font-size="14.00">stdout</text>
</g>
<!-- err_no_symbols -->
<g id="node28" class="node">
<title>err_no_symbols</title>
<polygon fill="none" stroke="red" points="2026.04,-17 2026.04,-41.17 1982.1,-58.25 1919.96,-58.25 1876.02,-41.17 1876.02,-17 1919.96,0.08 1982.1,0.08 2026.04,-17"/>
<text text-anchor="middle" x="1951.03" y="-32.88" font-family="Helvetica,sans-Serif" font-size="14.00">error JSON:</text>
<text text-anchor="middle" x="1951.03" y="-17.88" font-family="Helvetica,sans-Serif" font-size="14.00">no_symbols</text>
</g>
<!-- symidx&#45;&gt;p2 -->
<g id="edge8" class="edge">
<title>symidx&#45;&gt;p2</title>
<path fill="none" stroke="black" d="M445.5,-1245.2C607.65,-1240.84 910.45,-1232.71 1048.32,-1229.01"/>
<polygon fill="black" stroke="black" points="1048.45,-1232.51 1058.36,-1228.74 1048.27,-1225.51 1048.45,-1232.51"/>
</g>
<!-- empty_check&#45;&gt;p3 -->
<g id="edge20" class="edge">
<title>empty_check&#45;&gt;p3</title>
<path fill="none" stroke="green" d="M1469.58,-906.6C1497.19,-909.2 1527.74,-912.66 1555.59,-917.08 1573.54,-919.94 1592.72,-923.75 1610.72,-927.67"/>
<polygon fill="green" stroke="green" points="1610.05,-931.1 1620.57,-929.85 1611.57,-924.27 1610.05,-931.1"/>
<text text-anchor="middle" x="1546.59" y="-920.88" font-family="Times,serif" font-size="14.00">no</text>
</g>
<!-- empty_check&#45;&gt;p4 -->
<g id="edge21" class="edge">
<title>empty_check&#45;&gt;p4</title>
<path fill="none" stroke="orange" d="M1381.25,-882.03C1379.93,-801.56 1386.5,-473.76 1573.59,-340.08 1668.09,-272.56 1812.71,-303.57 1892.39,-328.87"/>
<polygon fill="orange" stroke="orange" points="1891.65,-332.31 1902.25,-332.08 1893.82,-325.66 1891.65,-332.31"/>
<text text-anchor="middle" x="1687.59" y="-343.88" font-family="Times,serif" font-size="14.00">yes</text>
</g>
<!-- sym_exists&#45;&gt;print -->
<g id="edge33" class="edge">
<title>sym_exists&#45;&gt;print</title>
<path fill="none" stroke="green" d="M2124.22,-94.08C2083.67,-94.08 2040.79,-94.08 2007.97,-94.08"/>
<polygon fill="green" stroke="green" points="2007.68,-90.58 1997.68,-94.08 2007.68,-97.58 2007.68,-90.58"/>
<text text-anchor="middle" x="2093.98" y="-97.88" font-family="Times,serif" font-size="14.00">yes</text>
</g>
<!-- sym_exists&#45;&gt;err_no_symbols -->
<g id="edge34" class="edge">
<title>sym_exists&#45;&gt;err_no_symbols</title>
<path fill="none" stroke="red" d="M2177.55,-78.2C2132.7,-68.43 2075.29,-55.93 2029.61,-45.98"/>
<polygon fill="red" stroke="red" points="2030.27,-42.54 2019.75,-43.83 2028.78,-49.38 2030.27,-42.54"/>
<text text-anchor="middle" x="2093.98" y="-65.88" font-family="Times,serif" font-size="14.00">no</text>
</g>
</g>
</svg>
